<mxfile host="65bd71144e">
    <diagram id="Mdy0bbg_BjUWHPSbK3h9" name="Страница 1">
        <mxGraphModel dx="554" dy="558" grid="1" gridSize="10" guides="1" tooltips="1" connect="1" arrows="1" fold="1" page="1" pageScale="1" pageWidth="827" pageHeight="1169" math="0" shadow="0">
            <root>
                <mxCell id="0"/>
                <mxCell id="1" parent="0"/>
                <mxCell id="3" style="edgeStyle=none;html=1;" edge="1" parent="1" source="2">
                    <mxGeometry relative="1" as="geometry">
                        <mxPoint x="350" y="140" as="targetPoint"/>
                    </mxGeometry>
                </mxCell>
                <mxCell id="2" value="start" style="rounded=1;whiteSpace=wrap;html=1;" vertex="1" parent="1">
                    <mxGeometry x="290" y="30" width="120" height="60" as="geometry"/>
                </mxCell>
                <mxCell id="5" style="edgeStyle=none;html=1;fontSize=15;" edge="1" parent="1" source="4">
                    <mxGeometry relative="1" as="geometry">
                        <mxPoint x="340" y="280" as="targetPoint"/>
                    </mxGeometry>
                </mxCell>
                <mxCell id="4" value="&lt;font style=&quot;font-size: 15px&quot;&gt;string[]&lt;br&gt;var result =&amp;nbsp;&lt;br&gt;new string&lt;br&gt;[array.Length]&lt;br&gt;var realSize = 0&lt;br&gt;&lt;/font&gt;" style="shape=parallelogram;perimeter=parallelogramPerimeter;whiteSpace=wrap;html=1;fixedSize=1;" vertex="1" parent="1">
                    <mxGeometry x="260" y="141" width="160" height="90" as="geometry"/>
                </mxCell>
                <mxCell id="7" style="edgeStyle=none;html=1;fontSize=15;" edge="1" parent="1" source="6">
                    <mxGeometry relative="1" as="geometry">
                        <mxPoint x="250" y="470" as="targetPoint"/>
                        <Array as="points">
                            <mxPoint x="340" y="470"/>
                        </Array>
                    </mxGeometry>
                </mxCell>
                <mxCell id="11" style="edgeStyle=none;html=1;fontSize=15;" edge="1" parent="1" source="6" target="13">
                    <mxGeometry relative="1" as="geometry">
                        <mxPoint x="470" y="560" as="targetPoint"/>
                        <Array as="points">
                            <mxPoint x="470" y="335"/>
                        </Array>
                    </mxGeometry>
                </mxCell>
                <mxCell id="6" value="value.Length &amp;lt;= 3" style="rhombus;whiteSpace=wrap;html=1;fontSize=15;" vertex="1" parent="1">
                    <mxGeometry x="265" y="280" width="150" height="110" as="geometry"/>
                </mxCell>
                <mxCell id="10" style="edgeStyle=none;html=1;fontSize=15;entryX=0;entryY=0.5;entryDx=0;entryDy=0;" edge="1" parent="1" source="9" target="6">
                    <mxGeometry relative="1" as="geometry">
                        <mxPoint x="190" y="340" as="targetPoint"/>
                        <Array as="points">
                            <mxPoint x="180" y="340"/>
                            <mxPoint x="190" y="335"/>
                        </Array>
                    </mxGeometry>
                </mxCell>
                <mxCell id="9" value="realSize++" style="rounded=0;whiteSpace=wrap;html=1;fontSize=15;" vertex="1" parent="1">
                    <mxGeometry x="130" y="440" width="120" height="60" as="geometry"/>
                </mxCell>
                <mxCell id="12" value="result[realSize] =&lt;br&gt;value" style="rounded=0;whiteSpace=wrap;html=1;fontSize=15;" vertex="1" parent="1">
                    <mxGeometry x="100" y="320" width="120" height="60" as="geometry"/>
                </mxCell>
                <mxCell id="13" value="end" style="ellipse;whiteSpace=wrap;html=1;fontSize=15;" vertex="1" parent="1">
                    <mxGeometry x="410" y="520" width="120" height="80" as="geometry"/>
                </mxCell>
                <mxCell id="14" value="no" style="text;html=1;align=center;verticalAlign=middle;resizable=0;points=[];autosize=1;strokeColor=none;fillColor=none;fontSize=15;" vertex="1" parent="1">
                    <mxGeometry x="345" y="410" width="30" height="20" as="geometry"/>
                </mxCell>
                <mxCell id="15" value="yes" style="text;html=1;align=center;verticalAlign=middle;resizable=0;points=[];autosize=1;strokeColor=none;fillColor=none;fontSize=15;" vertex="1" parent="1">
                    <mxGeometry x="430" y="310" width="40" height="20" as="geometry"/>
                </mxCell>
            </root>
        </mxGraphModel>
    </diagram>
</mxfile>